<svg enable-background="new 0 0 512 512" version="1.1"
              viewBox="0 0 512 512" xml:space="preserve" xmlns="http://www.w3.org/2000/svg">
              <path
                d="m448 64h-384c-35.344 0-64 28.656-64 64v256c0 35.344 28.656 64 64 64h384c35.344 0 64-28.656 64-64v-256c0-35.344-28.656-64-64-64zm-105.34 170.78 135.47-116.09c0.938 3 1.875 6 1.875 9.313v256c0 2.219-0.844 4.188-1.281 6.281l-136.06-155.5zm105.34-138.78c2.125 0 4 0.813 6 1.219l-198 169.72-198-169.72c2-0.406 3.875-1.219 6-1.219h384zm-414.73 294.25c-0.438-2.094-1.266-4.031-1.266-6.25v-256c0-3.313 0.953-6.313 1.891-9.313l135.42 116.06-136.05 155.5zm30.734 25.75c-3.234 0-6.172-0.938-9.125-1.844l138.75-158.56 51.969 44.531c2.984 2.595 6.703 3.876 10.406 3.876s7.422-1.281 10.406-3.875l51.969-44.531 138.75 158.56c-2.937 0.905-5.875 1.843-9.125 1.843h-384z" fill="#fff">
              </path>
            </svg>
